<svg xmlns="http://www.w3.org/2000/svg" xmlns:xlink="http://www.w3.org/1999/xlink" width="131.92mm" height="183.68mm" viewBox="0 0 373.95 520.66"><defs><style>.a,.g{fill:none;}.b{fill:#1d1d1b;}.c{fill:#36a9e1;}.d{clip-path:url(#a);}.e{fill:#ffed00;}.f{fill:#e6007e;}.g{stroke:#1d1d1b;stroke-miterlimit:10;stroke-width:2px;}</style><clipPath id="a" transform="translate(-29.52 -45.67)"><rect class="a" width="433" height="612"/></clipPath></defs><title>PROMO PRINT</title><path class="b" d="M77,501.48Q73.12,505,66,505H56.93v17.34H47.87V474.13H66.6q6.48,0,10.33,3.73t3.85,11.55Q80.79,497.95,77,501.48Zm-7-17.37a6.87,6.87,0,0,0-4.85-1.6H56.93v14.2h8.22A6.55,6.55,0,0,0,70,495q1.73-1.73,1.73-5.5T70,484.11Z" transform="translate(-29.52 -45.67)"/><path class="b" d="M105.34,485.86l0.73,0v9.55q-0.8-.1-1.42-0.13l-1,0q-5.09,0-6.84,3.67a15.58,15.58,0,0,0-1,6.35v17h-8.5V486.69h8.05v6.22a19.58,19.58,0,0,1,3.4-4.87,8.7,8.7,0,0,1,6.16-2.19Z" transform="translate(-29.52 -45.67)"/><path class="b" d="M137.91,518q-4.08,5.57-12.4,5.57T113.11,518a24,24,0,0,1,0-26.79q4.09-5.65,12.4-5.66t12.4,5.66A24,24,0,0,1,137.91,518Zm-6.75-5.15q2-2.91,2-8.27t-2-8.25a7,7,0,0,0-11.38,0q-2,2.89-2,8.25t2,8.27A7,7,0,0,0,131.16,512.84Z" transform="translate(-29.52 -45.67)"/><path class="b" d="M188.29,486.82a9.56,9.56,0,0,1,3.76,3.21,10.8,10.8,0,0,1,1.83,4.58,35,35,0,0,1,.3,5.27l-0.06,22.48h-8.64V499.65a8.14,8.14,0,0,0-.59-3.34,4.14,4.14,0,0,0-4.14-2.49,4.82,4.82,0,0,0-4.82,3.21,11,11,0,0,0-.68,4.09v21.24h-8.5V501.12a13.08,13.08,0,0,0-.59-4.61,4.09,4.09,0,0,0-4.17-2.58q-3.61,0-4.85,2.58a10.89,10.89,0,0,0-.68,4.38v21.46h-8.55v-35.6h8.2V492a14.75,14.75,0,0,1,3-4,10.77,10.77,0,0,1,12.34-.29,10.51,10.51,0,0,1,2.78,4.29,11.37,11.37,0,0,1,4.11-4.61,11.58,11.58,0,0,1,5.8-1.47A10.3,10.3,0,0,1,188.29,486.82Z" transform="translate(-29.52 -45.67)"/><path class="b" d="M228.84,518q-4.08,5.57-12.4,5.57T204,518a24,24,0,0,1,0-26.79q4.09-5.65,12.4-5.66t12.4,5.66A24,24,0,0,1,228.84,518Zm-6.75-5.15q2-2.91,2-8.27t-2-8.25a7,7,0,0,0-11.38,0q-2,2.89-2,8.25t2,8.27A7,7,0,0,0,222.09,512.84Z" transform="translate(-29.52 -45.67)"/><path class="b" d="M285.78,501.48Q281.95,505,274.84,505h-9.08v17.34H256.7V474.13h18.73q6.48,0,10.33,3.73t3.85,11.55Q289.61,497.95,285.78,501.48Zm-7-17.37a6.87,6.87,0,0,0-4.85-1.6h-8.22v14.2H274a6.55,6.55,0,0,0,4.85-1.73q1.73-1.73,1.73-5.5T278.82,484.11Z" transform="translate(-29.52 -45.67)"/><path class="b" d="M314.16,485.86l0.73,0v9.55q-0.8-.1-1.42-0.13l-1,0q-5.09,0-6.84,3.67a15.58,15.58,0,0,0-1,6.35v17h-8.5V486.69h8.05v6.22a19.57,19.57,0,0,1,3.4-4.87,8.71,8.71,0,0,1,6.16-2.19Z" transform="translate(-29.52 -45.67)"/><path class="b" d="M328.5,482.44H320v-8.61h8.55v8.61ZM320,486.69h8.55v35.67H320V486.69Z" transform="translate(-29.52 -45.67)"/><path class="b" d="M362.69,488.74q3.17,2.89,3.17,9.6v24h-8.64V500.66a10.88,10.88,0,0,0-.68-4.32,4.67,4.67,0,0,0-4.7-2.75,5.82,5.82,0,0,0-5.85,4,15.23,15.23,0,0,0-.82,5.43v19.3h-8.44v-35.6h8.17V492a15.47,15.47,0,0,1,3.07-4,9.92,9.92,0,0,1,6.57-2.16A11.61,11.61,0,0,1,362.69,488.74Z" transform="translate(-29.52 -45.67)"/><path class="b" d="M370.39,493.66V487h4.5v-9.95h8.35V487h5.24v6.64h-5.24v18.85a4.61,4.61,0,0,0,.5,2.73q0.5,0.54,3.08.54l0.81,0,0.84,0v7l-4,.16q-6,.23-8.17-2.29a7.29,7.29,0,0,1-1.42-4.94v-22h-4.5Z" transform="translate(-29.52 -45.67)"/><polygon class="c" points="143.33 305.81 117.66 305.81 117.66 392.13 205.96 392.13 205.96 256.83 143.33 256.83 143.33 305.81"/><g class="d"><path class="e" d="M213.18,232.53a69.93,69.93,0,0,1,2-16.34H172.85V302.5H279.18v-0.2a69.91,69.91,0,0,1-66-69.77" transform="translate(-29.52 -45.67)"/><path class="f" d="M288.43,162.83a69.94,69.94,0,0,1-67.9,53.36c-1.34,0-2.65-.13-4-0.2v0.2h-1.37a69.65,69.65,0,0,0,64,86.11c1.32,0.08,2.63.2,4,.2a69.94,69.94,0,0,0,5.27-139.68" transform="translate(-29.52 -45.67)"/><polygon class="c" points="138.65 252.16 138.65 165.84 50.35 165.84 50.35 301.14 112.98 301.14 138.65 301.14 138.65 252.16"/><path class="e" d="M210.5,211.51h1.37v-0.2a69.88,69.88,0,0,1,0-139.54v-0.2h-132V211.51H210.5Z" transform="translate(-29.52 -45.67)"/><path class="f" d="M145.88,141.54a69.91,69.91,0,0,0,66,69.77c1.32,0.07,2.63.2,4,.2a70,70,0,1,0,0-139.94c-1.34,0-2.65.13-4,.2a69.91,69.91,0,0,0-66,69.77" transform="translate(-29.52 -45.67)"/><rect class="g" x="1" y="1" width="371.95" height="518.66" rx="3.23" ry="3.23"/><line class="g" x1="1" y1="406.48" x2="372.95" y2="406.48"/></g></svg>