<svg version="1" xmlns="http://www.w3.org/2000/svg" width="1269.333" height="1269.333" viewBox="0 0 952.000000 952.000000"><path d="M46.4 1.9c-2.3 1-5.2 3.4-6.5 5.2l-2.4 3.4-.3 463c-.2 311.2 0 464.2.7 466.5.6 2 2.7 5.1 4.6 7l3.6 3.5h859.8l3.6-3.5c1.9-1.9 4-5 4.6-7 .7-2.3.9-155.3.7-466.5l-.3-463-2.4-3.4c-1.3-1.8-4.2-4.2-6.5-5.2C901.6.1 888.8 0 476 0S50.4.1 46.4 1.9zm859.3 4.9c2 1.4 3.6 3.7 4.3 6 .7 2.5 1 151.3 1 463.5 0 385.7-.2 460.3-1.4 463-.7 1.8-2.3 4.1-3.6 5.2-2.2 2-3.6 2-430 2s-427.8 0-430-2c-1.3-1.1-2.9-3.4-3.6-5.2-1.2-2.7-1.4-77.3-1.4-463 0-312.2.3-461 1-463.5 1.1-3.7 4.6-7.1 8.5-8.1 1.1-.2 193.3-.4 427-.3l425 .1 3.2 2.3z"/><path d="M458.5 46.6c-2.2.3-8.9 1.4-14.9 2.5-67.2 12.5-119 65.3-131.3 133.9-2.4 13.4-2.3 41.1.1 54.5 12.9 71.6 68.3 125.1 139.4 135.1 17.5 2.4 41.8 1.6 57.7-2 59.4-13.6 105.2-56.3 122.4-114.3 12-40.6 8-82.8-11.5-121.3-22.5-44.3-63.8-75.4-113.9-86-9.8-2.1-37.9-3.5-48-2.4z"/><path d="M641.6 271.2c-16.2 49.9-55.1 89.3-104.1 105.7-16.1 5.3-27.4 7.2-46.7 7.8l-17.8.5-.9 3.7c-3.6 13.9-4.7 44.4-2.2 59.1 6.4 37.2 21 66 46.6 91.6 39.5 39.6 94.9 56.1 150.5 44.8 19.8-4 45.7-15.6 62.3-27.9 27.9-20.7 48-48.2 58.7-80.4 16.4-49.3 9.6-100.5-19.2-143.8-9.6-14.6-30.3-35.3-44.3-44.6-22.1-14.6-47.7-23.9-74.1-27.1l-5.1-.6-3.7 11.2zM155 533.5V692h207V375H155v158.5z"/><path d="M374 646v57h-60v202h206V589H374v57z"/></svg>